<?xml version="1.0" encoding="UTF-8" standalone="no"?>
<svg
   viewBox="0.0 0.0 348.0 348.0"
   fill="none"
   version="1.1"
   id="svg23"
   sodipodi:docname="Feature Cryptography.svg"
   inkscape:version="1.1.1 (3bf5ae0d25, 2021-09-20)"
   xmlns:inkscape="http://www.inkscape.org/namespaces/inkscape"
   xmlns:sodipodi="http://sodipodi.sourceforge.net/DTD/sodipodi-0.dtd"
   xmlns="http://www.w3.org/2000/svg"
   xmlns:svg="http://www.w3.org/2000/svg">
  <defs
     id="defs27" />
  <sodipodi:namedview
     id="namedview25"
     pagecolor="#ffffff"
     bordercolor="#666666"
     borderopacity="1.0"
     inkscape:pageshadow="2"
     inkscape:pageopacity="0.0"
     inkscape:pagecheckerboard="0"
     showgrid="false"
     inkscape:zoom="2.25"
     inkscape:cx="173.77778"
     inkscape:cy="174"
     inkscape:window-width="1920"
     inkscape:window-height="1001"
     inkscape:window-x="-9"
     inkscape:window-y="-9"
     inkscape:window-maximized="1"
     inkscape:current-layer="svg23" />
  <path
     d="M5.079 5.776h336.913v337.67H5.08z"
     stroke-width="2"
     stroke="#000"
     id="path19" />
  <path
     d="M282.734 40.554c0-8.376 6.966-15.165 15.56-15.165 4.126 0 8.084 1.597 11.001 4.441 2.918 2.844 4.558 6.702 4.558 10.724 0 8.376-6.966 15.165-15.56 15.165-8.593 0-15.559-6.79-15.559-15.165z"
     stroke-width="2"
     stroke="#000"
     id="path21" />
  <path
     style="fill:#000000;stroke-width:0.672022"
     d="m 28.83395,324.1524 -3.528112,-0.29344 V 212.33854 100.81813 h 148.516702 148.5167 v 111.55553 111.55553 l -100.63519,0.01 c -55.34935,0.005 -120.59421,0.12178 -144.988585,0.25833 -24.394372,0.13657 -45.941054,0.11625 -47.881515,-0.0451 z M 173.74222,71.931843 V 53.104617 h 18.82722 18.82724 l -0.17865,18.64859 -0.17863,18.64859 -18.64859,0.178637 -18.64859,0.178637 z m 32.77486,-0.346641 0.18183,-13.440426 h -14.09954 -14.09953 l -0.19474,13.329805 c -0.10711,7.331394 -0.0627,13.461151 0.0985,13.621684 0.1613,0.160534 6.51213,0.227178 14.11244,0.11062 l 13.81919,-0.181258 z m -22.24652,1.904059 c -0.74248,-0.742473 -0.50407,-3.931281 0.35841,-4.793751 1.29331,-1.293317 14.27474,-1.085743 15.61009,0.249608 1.23835,1.238354 1.30549,1.926305 0.36037,3.692295 -0.62477,1.167387 -1.46947,1.299863 -8.28827,1.299863 -4.17593,0 -7.7942,-0.201606 -8.0406,-0.448015 z m 35.16911,-1.557418 V 53.104617 h 18.82722 18.82723 l -0.17864,18.64859 -0.17863,18.64859 -18.64859,0.178637 -18.64859,0.178637 z m 32.92904,-0.706296 c 0,-13.767695 -0.0339,-14.117962 -1.29986,-13.440426 -0.76565,0.409763 -6.56556,0.695666 -14.11246,0.695666 h -12.81258 v 13.440425 13.440426 h 14.11246 14.11244 z m -16.63584,9.327832 c -0.46019,-0.460195 -0.83671,-2.137081 -0.83671,-3.726411 v -2.889692 h -2.63313 c -3.75742,0 -4.75911,-0.552629 -4.75911,-2.62558 0,-2.539752 1.16143,-3.422612 4.50254,-3.422612 h 2.8897 v -2.889691 c 0,-3.468053 0.88008,-4.502543 3.83052,-4.502543 h 2.21767 v 3.696118 3.696116 h 3.2257 c 3.50686,0 4.83855,0.832303 4.83855,3.024096 0,2.186798 -1.32994,3.024096 -4.80343,3.024096 h -3.19058 l -0.20313,3.528112 c -0.19442,3.376829 -0.28971,3.536614 -2.2225,3.726411 -1.11065,0.109065 -2.39589,-0.178223 -2.85609,-0.63842 z M 35.305838,57.472755 V 24.879722 h 17.753601 c 9.76448,0 18.231948,0.18356 18.816596,0.40791 0.948836,0.364103 2.844774,3.91965 1.062995,32.593033 V 90.065787 H 54.122434 35.305838 Z M 68.906902,56.800733 V 32.943978 H 54.122434 39.337966 v 23.856755 23.856756 h 14.784468 14.784468 z m -26.208829,8.400266 c 0,-1.792057 0.224007,-2.016063 2.016063,-2.016063 1.792057,0 2.016064,-0.224007 2.016064,-2.016064 0,-1.792058 -0.224007,-2.016065 -2.016064,-2.016065 -1.90406,0 -2.016063,-0.149337 -2.016063,-2.688085 0,-2.538746 0.112003,-2.688085 2.016063,-2.688085 1.792057,0 2.016064,-0.224007 2.016064,-2.016063 0,-1.792057 -0.224007,-2.016064 -2.016064,-2.016064 -1.861007,0 -0.601987,-0.698063 -2.016063,-2.382779 v -2.38278 l 4.536143,0.19871 4.536144,0.19871 0.18751,8.904282 0.187511,8.904283 h 1.996558 1.996558 v -9.102993 -9.102992 l 4.536145,0.19871 4.536143,0.19871 0.210583,2.18407 c 0.206864,2.145499 0.161574,2.184069 -2.564716,2.184069 -2.631137,0 -2.764255,0.096 -2.562658,1.848058 0.184612,1.604452 0.544834,1.875552 2.732722,2.056631 2.450349,0.202801 4.071758,0.802042 2.52008,2.85609 v 2.647518 h -2.732723 c -2.584687,0 -2.721203,0.100113 -2.520079,1.84806 0.184612,1.604451 0.544834,1.875552 2.732722,2.056629 2.293273,0.189802 3.799058,0.920761 2.52008,2.18407 v 1.975498 H 54.122434 42.698073 Z M 81.164836,57.64076 81.339295,25.215733 h 18.480585 18.48058 l 0.17447,32.425027 0.17446,32.425027 H 99.81988 80.990377 Z M 113.93233,56.800733 V 32.943978 H 99.81988 85.707434 v 23.856755 23.856756 h 14.112446 14.11245 z m -20.99222,9.39989 c -2.683203,-1.507719 -3.872944,-4.335544 -3.870058,-9.198511 0.003,-5.088499 1.399354,-7.77283 5.335949,-10.257893 3.568526,-2.252712 7.259229,-2.252712 10.827759,0 4.23002,2.670296 5.45285,5.164223 5.18362,10.571942 -0.21016,4.221524 -0.40591,4.727077 -2.73037,7.051537 -2.41136,2.411355 -2.6964,2.510689 -7.705637,2.685301 -3.714192,0.12947 -5.727706,-0.114275 -7.041263,-0.852376 z m 11.14612,-4.554217 c 2.81673,-2.254016 3.25208,-6.866841 0.90553,-9.59486 -1.46875,-1.707527 -2.16016,-1.971025 -5.17188,-1.971025 -3.011721,0 -3.703131,0.263498 -5.171883,1.971025 -1.432286,1.665132 -1.642123,2.44375 -1.352078,5.017016 0.624701,5.542336 6.480481,8.026679 10.790311,4.577844 z m 23.44808,-4.005646 0.17445,-32.425027 18.31258,-0.178806 18.31258,-0.178806 v 32.603833 32.603833 h -18.48703 -18.48705 z m 33.43951,-0.840027 V 32.943978 h -14.78447 -14.78447 v 23.856755 23.856756 h 14.78447 14.78447 z m -17.47256,8.400266 c 0,-1.792057 -0.224,-2.016063 -2.01606,-2.016063 -1.85605,0 -2.01606,-0.186674 -2.01606,-2.352075 0,-2.165402 0.16001,-2.352074 2.01606,-2.352074 h 2.01606 V 54.112648 49.74451 h -4.41072 -4.41071 l 0.21058,-2.184069 0.21059,-2.18407 10.92034,-0.184651 10.92035,-0.184653 v 2.368722 2.368721 h -4.03213 -4.03212 v 4.323501 c 0,4.216983 0.0455,4.32874 1.84805,4.536144 1.53991,0.177186 1.88317,0.576822 2.05864,2.396712 0.19617,2.034596 0.0697,2.184069 -1.84805,2.184069 -1.83937,0 -2.05864,0.214741 -2.05864,2.016063 0,1.904061 -0.14934,2.016065 -2.68809,2.016065 -2.53875,0 -2.68809,-0.112004 -2.68809,-2.016065 z m 30.39051,-30.408963 0.18646,-9.576303 h 41.32931 41.32931 l 0.18646,9.576303 0.18645,9.576304 h -41.70222 -41.70222 z m 79.67648,0.04858 -0.19151,-6.83963 -4.70414,0.287423 c -2.58729,0.158083 -19.74914,0.287422 -38.13744,0.287422 h -33.43329 l 2.3e-4,6.552208 2.2e-4,6.552208 h 38.32873 38.32872 l -0.19152,-6.83963 z m -64.53755,3.425696 c -1.57905,-0.919714 -1.48979,-1.962235 0.16801,-1.962235 0.73922,0 1.34404,0.302409 1.34404,0.672021 0,0.369612 0.60482,0.672021 1.34404,0.672021 2.20686,0 1.52851,-1.268119 -1.34404,-2.512601 -2.83721,-1.229167 -3.30874,-2.183905 -1.72695,-3.496667 1.46193,-1.213291 6.03512,-0.632392 6.30679,0.801103 0.13571,0.71615 -0.1906,1.176038 -0.83445,1.176038 -0.58151,0 -1.0573,-0.30241 -1.0573,-0.672022 0,-0.369611 -0.63002,-0.672021 -1.40005,-0.672021 -1.70309,0 -1.37459,1.576571 0.40017,1.920536 3.69864,0.716825 3.79685,4.814424 0.11457,4.779241 -1.17633,-0.01123 -2.668,-0.328675 -3.31483,-0.705414 z m 9.34446,-0.503103 c -0.6672,-0.737242 -1.1122,-2.370232 -1.1122,-4.081403 0,-2.353668 0.20565,-2.813406 1.17604,-2.629159 0.84719,0.160855 1.26999,1.067196 1.51205,3.241376 0.27366,2.458068 0.58541,3.018085 1.68005,3.018085 1.12923,0 1.37705,-0.516859 1.55058,-3.233956 0.16698,-2.61448 0.42443,-3.192599 1.34404,-3.018051 0.83307,0.15812 1.19099,1.035876 1.33734,3.279592 0.17851,2.736928 0.0139,3.148413 -1.54367,3.858079 -2.50001,1.139079 -4.66323,0.980934 -5.94423,-0.434563 z m 9.91266,0.297802 c 0,-0.548543 0.69548,-2.483547 -0.1469,-3.864121 l 0.21039,-2.932973 h 3.36011 3.36011 l 0.13106,2.977028 c 0.0935,2.12328 -0.19562,3.225299 -1.00803,3.842749 -1.53501,1.166621 -5.90674,1.235051 -5.90674,-0.02268 z m 4.93596,-1.588929 c 0.16406,-0.492715 -0.29915,-0.840027 -1.12035,-0.840027 -0.82546,0 -1.40004,0.433917 -1.40004,1.057307 0,1.235092 2.09701,1.054312 2.52039,-0.21728 z m -0.30082,-3.182898 c 0,0.371768 -0.39671,-0.764736 -1.04353,-0.889302 -0.73559,-0.141663 -1.17604,0.187945 -1.17604,0.880099 0,1.169175 2.21957,-1.182127 2.21957,0.0092 z m 4.94866,5.254963 c -0.24641,-0.246407 -0.44801,-2.083039 -0.44801,-4.081403 0,-3.096084 0.17358,-3.599958 1.17387,-3.407321 0.64563,0.124337 1.68,1.280546 2.2986,2.569355 l 1.12473,2.343288 1.0889,-2.564078 c 0.75053,-1.767295 1.44585,-2.495338 2.23755,-2.342871 0.91447,0.176112 1.14863,0.961399 1.14863,3.852119 0,3.940315 -1.22496,5.331139 -2.31031,2.623158 -0.44041,-1.098809 -0.64134,-1.228124 -0.67118,-0.431951 -0.0634,1.69127 -1.47367,2.252895 -2.41716,0.962605 -0.72372,-0.989765 -0.87568,-1.002542 -1.22099,-0.102669 -0.41625,1.084719 -1.25663,1.32777 -2.00463,0.579768 z m 10.59829,-0.427251 c -0.20832,-0.54287 -0.28408,-2.304263 -0.16836,-3.914209 0.15712,-2.185923 0.51713,-2.985383 1.42165,-3.157034 1.07141,-0.203321 1.18778,0.216602 1.00803,3.637227 -0.19689,3.746763 -1.4254,5.612373 -2.26132,3.434016 z m 7.4899,-0.230162 c -0.21541,-0.561309 -0.39164,-2.054262 -0.39164,-3.317673 0,-1.849098 -0.26213,-2.297112 -1.34404,-2.297112 -0.73922,0 -1.34404,-0.302409 -1.34404,-0.672022 0,-0.374072 1.80528,-0.67202 4.07179,-0.67202 2.5434,0 3.91589,0.25225 3.65645,0.67202 -0.22843,0.369613 -0.8511,0.672022 -1.3837,0.672022 -0.69618,0 -0.96836,0.829774 -0.96836,2.952196 0,3.004856 -1.49845,4.742195 -2.29646,2.662589 z"
     id="path139"
     sodipodi:nodetypes="cccccccccscccccccccccccccsssccsssssscccccccccssscccccssscssscsscccssscsssccssscccccccccccccssssssssscccccccccccssssscsssscccsccccccccccccccccccscssssssssssssccccccccccccccccccsssscccccccccccccssssssscccccccccccsscccccccssssssssssssssssssssssssscccsssssssssssssssscsssssssssssssssssssssss" />
</svg>
